<?xml version="1.0" standalone="no"?>
<!DOCTYPE svg PUBLIC "-//W3C//DTD SVG 1.1//EN"
   "http://www.w3.org/Graphics/SVG/1.1/DTD/svg11.dtd">
<svg width="246" height="118" version="1.1"
   xmlns="http://www.w3.org/2000/svg">
   <desc>1500023540063
   </desc>

   <g id="barcode" fill="#0327dc">
      <rect x="0" y="0" width="246" height="118" fill="#ffffff" />
      <rect x="0.00" y="0.00" width="4.00" height="100.00" />
      <rect x="6.00" y="0.00" width="2.00" height="100.00" />
      <rect x="12.00" y="0.00" width="6.00" height="100.00" />
      <rect x="22.00" y="0.00" width="2.00" height="100.00" />
      <rect x="26.00" y="0.00" width="6.00" height="100.00" />
      <rect x="36.00" y="0.00" width="4.00" height="100.00" />
      <rect x="44.00" y="0.00" width="4.00" height="100.00" />
      <rect x="50.00" y="0.00" width="4.00" height="100.00" />
      <rect x="58.00" y="0.00" width="4.00" height="100.00" />
      <rect x="66.00" y="0.00" width="4.00" height="100.00" />
      <rect x="74.00" y="0.00" width="4.00" height="100.00" />
      <rect x="82.00" y="0.00" width="4.00" height="100.00" />
      <rect x="88.00" y="0.00" width="2.00" height="100.00" />
      <rect x="96.00" y="0.00" width="2.00" height="100.00" />
      <rect x="104.00" y="0.00" width="4.00" height="100.00" />
      <rect x="110.00" y="0.00" width="4.00" height="100.00" />
      <rect x="120.00" y="0.00" width="2.00" height="100.00" />
      <rect x="124.00" y="0.00" width="2.00" height="100.00" />
      <rect x="132.00" y="0.00" width="2.00" height="100.00" />
      <rect x="138.00" y="0.00" width="4.00" height="100.00" />
      <rect x="146.00" y="0.00" width="2.00" height="100.00" />
      <rect x="154.00" y="0.00" width="2.00" height="100.00" />
      <rect x="158.00" y="0.00" width="8.00" height="100.00" />
      <rect x="168.00" y="0.00" width="6.00" height="100.00" />
      <rect x="176.00" y="0.00" width="4.00" height="100.00" />
      <rect x="184.00" y="0.00" width="2.00" height="100.00" />
      <rect x="188.00" y="0.00" width="6.00" height="100.00" />
      <rect x="198.00" y="0.00" width="2.00" height="100.00" />
      <rect x="202.00" y="0.00" width="6.00" height="100.00" />
      <rect x="212.00" y="0.00" width="4.00" height="100.00" />
      <rect x="220.00" y="0.00" width="4.00" height="100.00" />
      <rect x="230.00" y="0.00" width="6.00" height="100.00" />
      <rect x="238.00" y="0.00" width="2.00" height="100.00" />
      <rect x="242.00" y="0.00" width="4.00" height="100.00" />
      <text x="123.00" y="118.00" text-anchor="middle"
         font-family="Helvetica" font-size="16.0" fill="#000000" >
         1500023540063
      </text>
   </g>
</svg>
